<svg xmlns="http://www.w3.org/2000/svg" xmlns:xlink="http://www.w3.org/1999/xlink" viewBox="0 0 154 154"><defs><style>.cls-1{fill:#b9e187;}.cls-2{fill:url(#未命名的渐变_184);}.cls-3{font-size:30.98px;}.cls-3,.cls-4,.cls-5{fill:#fff;}.cls-3,.cls-4{font-family:STYuanti-SC-Bold, Yuanti SC;font-weight:700;}.cls-4{font-size:28.81px;}.cls-6{fill:none;stroke:#fff;stroke-miterlimit:10;}</style><linearGradient id="未命名的渐变_184" x1="77" y1="9" x2="77" y2="145" gradientUnits="userSpaceOnUse"><stop offset="0" stop-color="#67b520"/><stop offset="0.99" stop-color="#2d8a0e"/></linearGradient></defs><title>资源 35</title><g id="图层_2" data-name="图层 2"><g id="图层_1-2" data-name="图层 1"><circle class="cls-1" cx="77" cy="77" r="77"/><circle class="cls-2" cx="77" cy="77" r="68"/><text class="cls-3" transform="translate(46.02 107.55)">彩票</text><text class="cls-4" transform="translate(68.32 65.71)">常玩</text><path class="cls-5" d="M51.5,40.38a5.08,5.08,0,0,0-4,1.91,5.09,5.09,0,0,0-8.77,4.89c1.43,4.35,8.18,8.62,8.77,9,.6-.37,7.34-4.65,8.77-9a5.09,5.09,0,0,0-4.8-6.81Z"/><rect class="cls-6" x="29.38" y="52.56" width="12.77" height="12.77" rx="3.19" ry="3.19" transform="translate(52.16 -8.02) rotate(45)"/><rect class="cls-6" x="52.89" y="52.56" width="12.77" height="12.77" rx="3.16" ry="3.16" transform="translate(142.88 58.72) rotate(135)"/><rect class="cls-6" x="41.14" y="64.38" width="12.77" height="12.77" rx="3.2" ry="3.2" transform="translate(131.17 87.21) rotate(135)"/></g></g></svg>