<svg xmlns="http://www.w3.org/2000/svg" xmlns:xlink="http://www.w3.org/1999/xlink" viewBox="0 0 154 154"><defs><style>.cls-1{fill:#ffd07b;}.cls-2{fill:url(#未命名的渐变_144);}.cls-3{fill:url(#未命名的渐变_158);}.cls-4,.cls-5,.cls-6{fill:#fff;}.cls-5{font-size:51.89px;}.cls-5,.cls-6{font-family:STYuanti-SC-Bold, Yuanti SC;font-weight:700;}.cls-6{font-size:28.81px;}</style><linearGradient id="未命名的渐变_144" x1="77" y1="9" x2="77" y2="145" gradientUnits="userSpaceOnUse"><stop offset="0" stop-color="#e9a000"/><stop offset="0.99" stop-color="#ef6c05"/></linearGradient><linearGradient id="未命名的渐变_158" x1="43" y1="66.05" x2="111" y2="66.05" gradientUnits="userSpaceOnUse"><stop offset="0" stop-color="#e47922"/><stop offset="1" stop-color="#9e1e0a"/></linearGradient></defs><title>资源 32</title><g id="图层_2" data-name="图层 2"><g id="图层_1-2" data-name="图层 1"><circle class="cls-1" cx="77" cy="77" r="77"/><circle class="cls-2" cx="77" cy="77" r="68"/><path class="cls-3" d="M111,71.56c0,24.58-17.87,39-34,39s-34-14.41-34-39,17.87-50,34-50S111,47,111,71.56Z"/><path class="cls-4" d="M87.84,59.63a2.72,2.72,0,0,0-1.94.84,3.88,3.88,0,0,0-1.1,2.17,2.67,2.67,0,0,0,.32,2.07,2,2,0,0,0,1.77.77,2.7,2.7,0,0,0,1.92-.81,3.65,3.65,0,0,0,1.06-2.07,2.85,2.85,0,0,0-.35-2.1A1.87,1.87,0,0,0,87.84,59.63Zm.64,11a3.08,3.08,0,0,0-1.05-.88,3,3,0,0,0-1.38-.32,3.65,3.65,0,0,0-1.51.32,4.45,4.45,0,0,0-1.31.9,5.46,5.46,0,0,0-1.54,2.95,4.11,4.11,0,0,0,.45,3.05,2.78,2.78,0,0,0,2.51,1.19,4,4,0,0,0,2.93-1.22,5.81,5.81,0,0,0,1.54-3.16,3.73,3.73,0,0,0,0-1.53A3.46,3.46,0,0,0,88.49,70.65ZM77,34.54c-11.78,0-24.83,18.58-24.83,36.54S65.22,99.56,77,99.56,101.83,89,101.83,71.07,88.78,34.54,77,34.54ZM75.27,62.91a8.94,8.94,0,0,1-.87,2.53A18.17,18.17,0,0,1,72.82,68a26.26,26.26,0,0,1-2,2.41q-1.1,1.17-2.22,2.21Q67.25,73.79,65.81,75t-3,2.28h9q1.22,0,.86,2.08t-1.59,2.08H57.94q-.58,0-.88-.84a3.49,3.49,0,0,1,0-2,6.57,6.57,0,0,1,.4-1.17,4.31,4.31,0,0,1,.75-1.13,9.05,9.05,0,0,1,1.25-1.06l2.26-1.72q1.29-1,2.74-2.23a32.92,32.92,0,0,0,2.72-2.59,21,21,0,0,0,2.19-2.75,7.4,7.4,0,0,0,1.17-2.8A2.71,2.71,0,0,0,70.14,61a2.17,2.17,0,0,0-1.87-.83,2.94,2.94,0,0,0-2.27.94,5.13,5.13,0,0,0-1.17,2.66,2.69,2.69,0,0,1-.77,1.63,2.73,2.73,0,0,1-1.79.49,2.83,2.83,0,0,1-1.9-.43c-.29-.29-.36-.85-.21-1.69a9.61,9.61,0,0,1,2.93-5.68A9.09,9.09,0,0,1,69.44,56q3.38,0,4.88,1.91A6.1,6.1,0,0,1,75.27,62.91Zm17.57,2.41a7.48,7.48,0,0,1-2.59,2.19,5.44,5.44,0,0,1,2.65,2.61,6.24,6.24,0,0,1,.4,3.76A10,10,0,0,1,92.18,77a9.42,9.42,0,0,1-2,2.52,8.74,8.74,0,0,1-2.78,1.63,9.85,9.85,0,0,1-3.41.58,8.51,8.51,0,0,1-3.21-.56,5.24,5.24,0,0,1-3.35-4.08,9.07,9.07,0,0,1,0-3.27,8.17,8.17,0,0,1,1.74-3.7,8.44,8.44,0,0,1,3.64-2.62,4.5,4.5,0,0,1-2-2.16,5.15,5.15,0,0,1-.3-3,7.74,7.74,0,0,1,1-2.64,7.2,7.2,0,0,1,1.78-2,8.3,8.3,0,0,1,2.42-1.29A8.76,8.76,0,0,1,88.59,56a5,5,0,0,1,5.54,6.54A6.56,6.56,0,0,1,92.83,65.31Z"/><text class="cls-5" transform="translate(23.96 112.75)"><tspan xml:space="preserve">p    c</tspan></text><text class="cls-6" transform="translate(49.19 122.08)">蛋蛋</text></g></g></svg>