<svg id="图层_1" data-name="图层 1" xmlns="http://www.w3.org/2000/svg" xmlns:xlink="http://www.w3.org/1999/xlink" viewBox="0 0 32 32"><defs><style>.cls-1{fill:#da5a23;}.cls-2{fill:url(#未命名的渐变_154);}.cls-3,.cls-4,.cls-5{fill:#fff;}.cls-4{font-size:5.38px;font-family:DFPZongYiW7, DFPZongYiW7-GB;}.cls-5{font-size:6.99px;font-family:FZZYJW--GB1-0, FZZongYi-M05S;}</style><linearGradient id="未命名的渐变_154" x1="16.06" y1="1.76" x2="16.06" y2="30.47" gradientUnits="userSpaceOnUse"><stop offset="0" stop-color="#da5723" stop-opacity="0.9"/><stop offset="1" stop-color="#a64a01"/></linearGradient></defs><title>未标题-1</title><circle class="cls-1" cx="16" cy="16" r="16"/><circle class="cls-2" cx="16.06" cy="16.12" r="14.35"/><path class="cls-3" d="M283.3,516.54h.82v2.85a3.38,3.38,0,0,1-.06.62c0,.22-.23.33-.58.33h-1v-.71h.5a.28.28,0,0,0,.23-.09.63.63,0,0,0,.07-.37Zm4.44-1.07v.71h-5.21v-.71Zm-.85,1.07v2.63a.67.67,0,0,0,.07.37.28.28,0,0,0,.23.09h.52v.7h-1c-.34,0-.54-.11-.58-.33a3.37,3.37,0,0,1-.06-.63v-2.84Zm5.82-1.43.39.82a.32.32,0,0,0,.14.16h.3v.62h-.47a.76.76,0,0,1-.31-.07.57.57,0,0,1-.24-.31l-.34-.6h-2.34l-.54.75a.78.78,0,0,1-.4.28c.05,0,0,0-.14,0h-.38v-.66h.1a.41.41,0,0,0,.21-.05.92.92,0,0,0,.23-.29l.39-.65h3.38Zm.83,1.93v.61h-5.12V517Zm-.11,1v1.49s0,0,0,.05a1.14,1.14,0,0,1-.12.52c-.06.13-.25.19-.59.19H288.5v-2.25h4.92Zm-4.1.61v.94h3.09c.13,0,.19-.06.19-.19v-.74Zm6-1.59h-.63a.32.32,0,0,1-.21-.08.42.42,0,0,1-.12-.26,1.84,1.84,0,0,1,0-.34v-.3h.62v.23a.27.27,0,0,0,0,.16.16.16,0,0,0,.12,0h.22v.55Zm-1-1.19v-.63h2.36a.25.25,0,0,0,.12,0s0-.06,0-.13V515h.67v.29a.82.82,0,0,1-.07.33.41.41,0,0,1-.22.21,2.15,2.15,0,0,1-.4,0h-2.5Zm0,1.54h1.27v-.25h.69v.25h1.26v.66h-1.26v2.27h-.69v-2.27H294.3Zm0,3v-.59h.11l.12,0a.18.18,0,0,0,.07-.08,1.1,1.1,0,0,0,.07-.37l.16-1h.63l-.2,1.3c-.06.39-.14.62-.24.69a.82.82,0,0,1-.47.1Zm2.1-3.32h-.57a.3.3,0,0,1-.33-.25,2.33,2.33,0,0,1,0-.47v-.26H296v.26a.28.28,0,0,0,0,.16.17.17,0,0,0,.12,0h.22Zm1.12,3.28h-.39a.65.65,0,0,1-.36-.11c-.11-.07-.18-.27-.21-.59l-.15-1.4H297l.14,1.15c0,.17,0,.28.09.31a.25.25,0,0,0,.16,0h.09Zm-.94-3.3v-.53h.2a.17.17,0,0,0,.11,0s0-.09,0-.21v-.18h.59v.43c0,.35-.12.53-.37.53h-.56Z" transform="translate(-276.57 -500.98)"/><path class="cls-3" d="M284.29,514.35a.76.76,0,1,0,.76-.76A.76.76,0,0,0,284.29,514.35Z" transform="translate(-276.57 -500.98)"/><path class="cls-3" d="M300.72,514l-3,3.17,1.24,1.06-1.22,1.92,2.6-2.24-1.21-1Zm.51,3.91L297.31,521l1.46,1.17-2.86,4.8,4.44-4.93L299,520.94Zm-20.57,2.79H296.9V521H280.67Z" transform="translate(-276.57 -500.98)"/><path class="cls-3" d="M299.78,520.2h3.17a.16.16,0,0,1,.16.16h0a.16.16,0,0,1-.16.16h-3.17Z" transform="translate(-276.57 -500.98)"/><path class="cls-3" d="M282.05,521.66h1l.74,1.53.72-1.53h.94V524h-.56v-1.69h0L284,524h-.48l-.83-1.69h0V524h-.56Zm4.89,0h.84L288.9,524h-.63l-.22-.46h-1.37l-.21.46h-.63Zm0,1.43h1l-.47-1Zm2.41-1.37h1.81a1,1,0,0,1,.37.07.46.46,0,0,1,.23.25.74.74,0,0,1,.07.29s0,.07,0,.16a1.88,1.88,0,0,1,0,.3.4.4,0,0,1-.09.19.32.32,0,0,1-.15.09l-.09.06.15.09a.43.43,0,0,1,.17.26.19.19,0,0,1,0,.05V524h-.58v-.26h0a.37.37,0,0,0,0-.15.29.29,0,0,0-.14-.13.19.19,0,0,0-.11,0h-1.06V524h-.55v-2.28Zm.55.53v.65h1a.55.55,0,0,0,.2,0,.21.21,0,0,0,.08-.07.39.39,0,0,0,0-.19.42.42,0,0,0,0-.23.29.29,0,0,0-.15-.12l-.12,0h-1Zm2.43-.55h.55v.86h.36l.88-.86h.75l-1.09,1.11L295,524h-.8l-1-.92h-.35V524h-.55Z" transform="translate(-276.57 -500.98)"/><path class="cls-3" d="M300.64,521.66h.55v2.29h-.55Zm1,2.31.91-1.15-.92-1.15h.71l.69.85.69-.86h.7l-.93,1.16.94,1.16h-.71l-.69-.86-.68.85h-.7Z" transform="translate(-276.57 -500.98)"/><text class="cls-4" transform="matrix(0.98, 0, -0.17, 0.98, 15.74, 10.66)">分</text><text class="cls-5" transform="matrix(0.97, 0, -0.17, 0.98, 11.92, 11.3)">5</text></svg>