<svg xmlns="http://www.w3.org/2000/svg" xmlns:xlink="http://www.w3.org/1999/xlink" viewBox="0 0 154 154"><defs><style>.cls-1{fill:#c1e898;}.cls-2{fill:url(#未命名的渐变_17);}.cls-3{fill:#fff;}.cls-4{font-size:24.2px;fill:#f6f7ca;font-family:FZZYJW--GB1-0, FZZongYi-M05S;}</style><linearGradient id="未命名的渐变_17" x1="77" y1="9" x2="77" y2="145" gradientUnits="userSpaceOnUse"><stop offset="0" stop-color="#53a61a"/><stop offset="1" stop-color="#1f720b"/></linearGradient></defs><title>资源 1</title><g id="图层_2" data-name="图层 2"><g id="图层_1-2" data-name="图层 1"><circle class="cls-1" cx="77" cy="77" r="77"/><circle class="cls-2" cx="77" cy="77" r="68"/><path id="形状_1" data-name="形状 1" class="cls-3" d="M135.14,48.37c-3.07,1-6.25,1.83-9.53,2.53-3.81,4.56-6.78,9.43-8.06,16.29-.51,2.73-.09,5.59-.56,8.53-1.36,8.65-9.81,10.61-11.32,18.52,1.6,2.38,4.93,3.4,7.25,5.21-4.42,7.68-13.62,9.34-20.79,13.46-7.33,4.2-13.5,9.46-18,17.16,4.37-1,8.57-2.21,12.83-3.36C90.18,116,99.11,113.89,107,109c2.12-1.31,4.35-2.87,6.5-4.27a65.9,65.9,0,0,0,6.53-4.46c1-.88,2.81-2.84,2.87-4.08.09-1.71-1.82-2.85-3.15-4.15a11.26,11.26,0,0,1-2.93-4.33c-1-4.32,2.19-6.78,4-10.54.65-1.35.8-3,1.45-4,1.75-2.83,5.18-3.78,6-6.92s-1-5.69-.19-9c1.11-4.43,4.74-5.32,7.61-8.74l-.6-.07h0ZM116.67,59.09c-2.2.48-4.21,1.19-6.42,1.68l-.69,6.12c2.2-.48,4.34-1,6.42-1.68.29-1.68,1.08-5.07.68-6.12Zm-39,29.2c3.06-4.95,5.41-10.8,7.79-15.72a31.86,31.86,0,0,0,3.31-.83c.87-2.51,2.27-4.37,3.18-6.84a29.55,29.55,0,0,1-3.09.65c1-1.73,1.8-3.61,2.63-5.5a64.5,64.5,0,0,0-6.61,1.66q-1.4,2.81-2.65,5.7c-3.53.93-7.16,1.72-10.56,2.81-.8,2.3-2.56,4.61-3,6.66,3.17-1,6.58-1.7,9.92-2.48-1.83,2-.39,4.64-1.53,6.43-1.39,2.19-4.58,3.73-5.16,6.61-4.63.07-6.62,3.45-7.9,7.71,1.81-.47,3.51-.78,5.16-1.22s3.84-.64,5.18-1.42c1-.6,2.41-2.82,3.29-4.23h0ZM61.24,92.85c2.3-4.93,5.4-10.07,7.11-15-.36.17-1.41.62-1.63.22,1.57-3,3-6.11,4.63-9.07,1.82,0,2.55-1.32,3.13-2.85C70,67,66.06,68.41,61.67,69.31c-4.21,9.08-8.74,17.76-13,26.72,4.23-1,8.47-2,12.61-3.18h0Zm3.82-18a3.19,3.19,0,0,1-3.22,3.64c.7-1.68,1.37-3.4,3.22-3.64Zm-4.2,8.73c-.21,1.46-1.19,3.91-3.42,3.62.56-.95,1-2,1.55-3,.51-.34,1.38-.23,1.87-.59ZM48.76,89.45c1.78-3.58,3.32-7.4,4.81-10.65,3.76-.42,6-4,6.49-7.67a7.5,7.5,0,0,1-2.89.67c.8-1.86,1.72-3.56,2.43-5.53-2.13.43-4,1.12-6.2,1.5a66.5,66.5,0,0,0-3.09,6c-3.58.64-6.79,1.73-10.32,2.44-.95,2.42-2.27,4.38-3.18,6.84,3.36-.77,6.59-1.69,9.92-2.48-1.34,1.66-.58,3.85-1,5.48-.79,2.94-4.79,3.79-5,7.23a10.23,10.23,0,0,1-5,1.44c-1.17,2.15-2.21,4.45-3.35,6.62,4.05-.86,7.74-.83,10.56-2.81,2.48-1.75,4.26-5.95,5.85-9.14ZM35.08,84.31c1.44-3.08,3-6.06,4.43-9.1a6.84,6.84,0,0,0,2.05-.37,8.67,8.67,0,0,0,.86-2.3c-4.35.88-8.41,2.12-12.61,3.18-4.08,9-9.19,18-12.85,26.74,4.05-1.25,8.36-2.18,12.61-3.18,2.35-5.09,4.88-10,7.3-15-.7-.25-1.41.62-1.8,0h0Zm-7,8.81a4.85,4.85,0,0,0-2.07.56c-.16-.88.87-2.21,1.17-3.27.82,0,1.19-.47,2-.36-.15,1.31-.93,1.83-1.15,3.06Zm4.41-8.9a9.37,9.37,0,0,1-2.27.54c.63-1.56,1.44-4,3.37-3.22-.23,1.06-.9,1.58-1.1,2.67Zm43.26-5.94c-.94-4.07-9.94,3.17-5.84,5.54,3,.32,6.55-2.46,5.84-5.54ZM44,83.71c-2.07-1.41-5.93,1.38-6.42,3.48-1.37,5.88,8.72,1.65,6.42-3.48Zm52.3-13.12c1.56-2.11,3.26-5.23,4.94-6.44,0,1.66-.69,3.79-.38,5.16,2-.67,4.25-1.16,6.42-1.68l.69-6.12c-2,.27-4.31,1.38-6,1.33,3.51-3.72,10.89-2.63,15.61-4.84,1.2-2,2.56-3.71,3.67-5.79-2.81.92-6.47.79-8,3.3C108.67,56.77,104,58,99.38,59.15c-3,4.35-6.85,8.86-9.31,13.15C92,71.59,94.2,71.15,96.28,70.59Zm4.27,17.47c2-.71,4.13-1.16,6.22-1.7,1-4.45,2-8.87,2.92-13.46,1-.34,2.14-.64,3.13-1,.42-1.42,1.12-2.49,1.63-3.81-3,.55-5.72,1.57-8.69,2.22,0-.6.72-1.33.37-1.56a50.08,50.08,0,0,1-6.81,1.63c-.43.74-.79,1.58-1.26,2.26-3.14.51-5.87,1.53-8.88,2.2-.14,1.48-1.55,2.56-1.24,3.86a7.25,7.25,0,0,1,2.49-.72C86.95,83,83.56,88.26,80.07,93.36c2.23-.37,4.13-1.14,6.39-1.48,3-4,5.79-9.44,8.85-12.6-1.8,3.9-4.19,8.27-5.39,12.19a57.91,57.91,0,0,1,6.84-1.83c1.88-4,3.46-8.29,5.56-12-.56,3.35-1.57,7.33-1.77,10.4h0Z"/><path id="形状_1_拷贝" data-name="形状 1 拷贝" class="cls-3" d="M86.53,103.17c-.69-.66-.62-1.85-1.38-2.46a4.37,4.37,0,0,1-2.3.4c.56,1.85,2.54,4.17,1.46,7.72.92.08,1.58-.2,2.46-.16-.07-4.94,3.47-6,4.23-8.93-2.22.11-3.46,1.61-4.47,3.44h0ZM77.33,107c1,.62.94,2,1.51,2.89.91-.26,2.25.1,2.77-.72a4.4,4.4,0,0,0-1.51-2.89c1.08-.86,2.61-2.18,1.95-4.09-2.4-1.08-4.5.24-6.73.21l-1.5,8.41c.79-.1,1.53-.27,2.3-.4C76.57,109.32,76.12,107,77.33,107Zm.2-3.39c.83.2,1.15-.32,2,0-.07.27-.13.55.09.62a2.4,2.4,0,0,1-2.44,1.18Zm-3.23,1a6.63,6.63,0,0,1,.12-1.8c-2.26.21-4.31.72-6.48,1.06l-1.47,8.21c2.25-.31,4.39-.77,6.67-1l.31-1.76c-1.49-.24-2.93.88-4.11.28.45-1.89,2.07-2.12,4-1.91l.31-1.76c-1.36,0-2.31.63-3.75.54l.25-1.37c1.39-.14,2.72-.37,4.14-.47h0Zm-21.54,3.62c.88.18,2-.58,2.46-.17l-1,5.87a15.18,15.18,0,0,0,2.46-.17l1.15-6.46c1.56.11,2.6-.54,4.14-.47l-1.08,6.06c1.13-.19,2.38-.2,3-1.08.06-2.92-.13-6.28,3.28-5.87l.35-2c-5.11.32-9.57,1.56-14.4,2.27l-.35,2h0Zm-3.2-1.38c-1.35,0-4.42,1.42-5.18,2.91-1,1.91-.82,4.3.07,5.26,4.14,4.47,12.71-8.28,5.11-8.17Zm-3,6.53c-.81-1.83.65-5.44,2.64-4.57,1.81.79.29,5.73-2.64,4.57Zm-3.35.61a13.14,13.14,0,0,1-3.75.54c.74-2.57,2.28-7.67-1.42-5.7-.35,2.7-1.31,5.82-1.27,8.25,1.89-.65,4.25-.65,6.28-1.1,0-.63.55-1.64.15-2Z"/><text class="cls-4" transform="matrix(1.21, -0.25, 0.07, 1, 43.94, 54.19)">重庆</text></g></g></svg>