<svg xmlns="http://www.w3.org/2000/svg" xmlns:xlink="http://www.w3.org/1999/xlink" viewBox="0 0 154 154"><defs><style>.cls-1{fill:#bafc7f;}.cls-2{fill:url(#未命名的渐变_121);}.cls-3,.cls-4{fill:#fff;}.cls-4{font-size:30px;font-family:STBaoliSC-Regular, Baoli SC;}.cls-5{font-size:19px;fill:#e3ffd2;font-family:STYuanti-SC-Bold, Yuanti SC;font-weight:700;letter-spacing:0.08em;}</style><linearGradient id="未命名的渐变_121" x1="77" y1="9" x2="77" y2="145" gradientUnits="userSpaceOnUse"><stop offset="0" stop-color="#84e826"/><stop offset="0.99" stop-color="#3da605"/></linearGradient></defs><title>资源 17</title><g id="图层_2" data-name="图层 2"><g id="图层_1-2" data-name="图层 1"><circle class="cls-1" cx="77" cy="77" r="77"/><circle class="cls-2" cx="77" cy="77" r="68"/><path id="形状_2" data-name="形状 2" class="cls-3" d="M45.62,50s15.41-2.77,21-12h11s-.39,1.77-3,4S53,60.73,65.62,88c0,0,.07,3.26-4,4l-18-1s10.09-32.49,13-34c0,0,1.15-4-3-1,0,0-8,5.11-11,5C42.62,61,44.3,55.37,45.62,50Z"/><path id="形状_3" data-name="形状 3" class="cls-3" d="M72.62,47s30.56-21.41,38,9c0,0,8,38.69-28,37,0,0-14.91-2.27-18-16,0,0,27.78,16.76,39-16a87.42,87.42,0,0,1-5,8s4.73-18.56-2-21C96.62,48,91.44,40.14,72.62,47Z"/><path id="形状_4" data-name="形状 4" class="cls-3" d="M97.62,53s-7.83-15.81-26-2c0,0-21.19,17.77,3,29,0,0,4.35.89,9-6,0,0-17.49,3-14-12S94.52,51.05,97.62,53Z"/><path id="形状_5" data-name="形状 5" class="cls-3" d="M87.62,58s5.7-7,10,0c0,0,5,10.18-11,19,0,0,7.7-9.32,7-14,0,0-2.06-6.42-7,0,0,0-3.51-6.5-7-3,0,0-2.22,5,1,8,0,0-4.69.44-6-5C74.62,63,74.66,48.62,87.62,58Z"/><text class="cls-4" transform="translate(13.25 83.01)"><tspan xml:space="preserve">湖         南</tspan></text><text class="cls-5" transform="matrix(0.97, 0, -0.26, 0.97, 36.29, 119.01)">快乐十分</text></g></g></svg>