<svg id="图层_1" data-name="图层 1" xmlns="http://www.w3.org/2000/svg" xmlns:xlink="http://www.w3.org/1999/xlink" viewBox="0 0 31.6 31.6"><defs><style>.cls-1{fill:url(#未命名的渐变_167);}.cls-2{fill:none;stroke:#ce297c;stroke-miterlimit:10;stroke-width:1.6px;}.cls-3,.cls-4{fill:#fff;}.cls-4{font-size:5.17px;font-family:STBaoliSC-Regular, Baoli SC;}</style><linearGradient id="未命名的渐变_167" x1="15.86" y1="1.06" x2="15.86" y2="30.33" gradientUnits="userSpaceOnUse"><stop offset="0" stop-color="#fd60ab"/><stop offset="1" stop-color="#dd03ac"/></linearGradient></defs><title>未标题-1</title><circle class="cls-1" cx="15.86" cy="15.69" r="14.64"/><circle class="cls-2" cx="15.8" cy="15.8" r="15"/><path class="cls-3" d="M415,561.2a6.94,6.94,0,0,0-8,1.87,7.63,7.63,0,0,1,6.89.28,1.21,1.21,0,0,0,.27.15,1.24,1.24,0,0,0,1,0,1.27,1.27,0,0,0,.65-.75h0A1.21,1.21,0,0,0,415,561.2Z" transform="translate(-390.47 -553.84)"/><path class="cls-3" d="M408.31,561.08a1.12,1.12,0,0,0,.26-.14,1.17,1.17,0,1,0-1.52-1.79,4.83,4.83,0,0,0-1.13,6.77A5.28,5.28,0,0,1,408.31,561.08Z" transform="translate(-390.47 -553.84)"/><path class="cls-3" d="M405.91,566.11s-2-1-1.57-4.07a1,1,0,0,0,0-.48.89.89,0,0,0-1.68.57A5.1,5.1,0,0,0,405.91,566.11Z" transform="translate(-390.47 -553.84)"/><polygon class="cls-3" points="12.01 13.64 11.93 14.61 13.12 14.61 13.2 13.64 12.01 13.64"/><path class="cls-3" d="M407.67,570.75l-.74.15a3.08,3.08,0,0,0-.14.48c-.16.89.4,1.32,1.67,1.32a2.89,2.89,0,0,0,1.76-.52,2.12,2.12,0,0,0,.87-1.41,1.51,1.51,0,0,0-.32-1.32h0a1.77,1.77,0,0,0-1.32-.52,2.77,2.77,0,0,0-1.45.46l.42-1.19H411l.42-1.17h-3.21l-1,3,.61.15a1.45,1.45,0,0,1,1-.57c.6,0,.83.35.71,1.07q-.27,1.52-1.32,1.52c-.58,0-.82-.29-.72-.84A3.41,3.41,0,0,1,407.67,570.75Z" transform="translate(-390.47 -553.84)"/><path class="cls-3" d="M406.22,572.66l.07-.42h-.88a3.59,3.59,0,0,0,.65.42Z" transform="translate(-390.47 -553.84)"/><path class="cls-3" d="M400.89,568.24a2,2,0,0,1-1.49.77l-.1.58a2.73,2.73,0,0,0,1-.27l-.58,3.31h1.22l.77-4.39Z" transform="translate(-390.47 -553.84)"/><path class="cls-3" d="M405.62,566.33a3.92,3.92,0,0,1-2.87-1.79h0a.55.55,0,0,0-.32-.28.51.51,0,0,0-.65.34.53.53,0,0,0,.14.53A4.18,4.18,0,0,0,405.62,566.33Z" transform="translate(-390.47 -553.84)"/><path class="cls-3" d="M402.77,572.25l.61-2H403l.62-1.55h-1.55l-.07.46h.42l-.63,1.71h.37l-.59,1.77H405l-.27-.42Z" transform="translate(-390.47 -553.84)"/><path class="cls-3" d="M396.93,569s-.1.57-.1.58a2.73,2.73,0,0,0,1-.27l-.58,3.31h1.21l.78-4.39h-.77A2,2,0,0,1,396.93,569Z" transform="translate(-390.47 -553.84)"/><path class="cls-3" d="M405,567.48l-.12.79h-.18l.12-.61H404l-.35,1.72h.81l.14-.71h.22l-.14,1h-1l-.07.42h.32l-.62,2h1l.1-.29a5.78,5.78,0,0,1-.25-.57l.32.32.46-1.41h.13l-.26,1.72.27.24h1.17l.07-.43H406l.23-1.52h.41l.07-.42h-.89l.14-1h.8l0-.43H406l.12-.79Z" transform="translate(-390.47 -553.84)"/><path class="cls-3" d="M411.25,563.19a5.76,5.76,0,0,0-3.65.08l-.2.09a1.58,1.58,0,0,0,.29,2.91,1.67,1.67,0,0,0,1.21-.09,3.3,3.3,0,0,1,1.94,0,3.19,3.19,0,0,1,.82.37,3.35,3.35,0,0,1,1,4.62h0a5.08,5.08,0,0,1-5.75,2.07,5.45,5.45,0,0,1-2.44-1.59,5.81,5.81,0,0,0,10.58-1.21h0A5.8,5.8,0,0,0,411.25,563.19Z" transform="translate(-390.47 -553.84)"/><text class="cls-4" transform="translate(10.32 25.95)">快 速</text></svg>