<svg xmlns="http://www.w3.org/2000/svg" xmlns:xlink="http://www.w3.org/1999/xlink" viewBox="0 0 154 154"><defs><style>.cls-1{fill:#fe7de7;}.cls-2{fill:url(#未命名的渐变_68);}.cls-3,.cls-4{fill:#fff;}.cls-4{font-size:30px;font-family:STBaoliSC-Regular, Baoli SC;}</style><linearGradient id="未命名的渐变_68" x1="77" y1="9" x2="77" y2="145" gradientUnits="userSpaceOnUse"><stop offset="0" stop-color="#d835b4"/><stop offset="1" stop-color="#a20b8c"/></linearGradient></defs><title>资源 9</title><g id="图层_2" data-name="图层 2"><g id="图层_1-2" data-name="图层 1"><circle class="cls-1" cx="77" cy="77" r="77"/><circle class="cls-2" cx="77" cy="77" r="68"/><path class="cls-3" d="M87.14,36.91l-2.47,3.57C89.57,41.23,92.9,37.09,87.14,36.91Zm24.94,2.65L77.54,59.81l-1.11,45.24L75.17,59.94l-32.47-20L76.05,57.24l35.87-17.89a42.48,42.48,0,1,0,.15.2ZM82.68,43.36h0L79.5,48H71.65L81.76,33.37h7.63C101.67,36.2,97.07,44.91,82.68,43.36Zm3.11-10.44H81.1L72.33,45.76H69.89l10-14.71h7.65ZM78,28.61H85.7l-1.76,1.87H79.25l-8.88,13H67.93Zm-4.21,4.77h0L71.41,37c-4.73-.67-7.22,2.36-2.5,3.72l-1.85,2.69C54.4,42.17,60.21,32.11,73.84,33.38ZM52.42,83.29c-2.27,0-4.17,0-5.35-1.8-1.08-2.14.1-8.23,1.23-12-.25-.87-2.2-1.21-3-1.17-.35,1-.06,2.4-1,2.87-.59,0-.89-2.31-1.34-3.47-3-2-1.64-5,.7-4.6-.32-3.65-.31-9.24.18-9.35,4.42.13,6,3.28,3.09,10.65l2,.89c2.34-7.26,4.83-12,7.57-12.22-1.27,4.43-3.31,9.6-3.3,13.84,3.67,1.36,5.41,2.65,4.34,3.81-.51,1.18-3.83-1.33-4.75-.64-1.36,4,.82,13.43-.28,13.23ZM68.58,98.91c-3.34.72-7.44-11.23-5-14.56C68.71,82.85,71.61,96.57,68.58,98.91Zm3.71-15.25c-3.81-.24-9.17-4.43-11.05-3.39-.35,4.6-2.62,11.54-5,14.18-1-2.74.35-11.06,1.41-15.69-.47-1.1-2.27-1-3.41-1.51-.42-1.73-1-5,.07-5.58s4.16,2,4.69,1.66c.72.35.76-5.13.24-5.09-2-.66-3.87-1.8-3.37-4.75,1-.73,3.13,1.79,4,1.25.39-.79.94-3.66.25-4-.77-.2-2.65-.81-2.49-2,.86-.75,5.13,0,6.94,1.91a8.76,8.76,0,0,1-.84,5.77,15.6,15.6,0,0,1,5.19,2.87c.45,1.22-.66,4.92-1,7.39-.35,1.38,2.27,1.22,4.18,2.67.71.62.69,2,.22,4.34Zm34-2.57h0c-1.83,3.73-9.62,12.13-22.7,18.41C89.88,92.85,96,87,98.92,81.59c1.83-6.41-3.36-9.5-7.12-8.79V70.09l6-10.64c-4.55,1.71-13,5.76-13.65,5.13-.1-3.69,1.09-6.32,4.15-7.39l19.21-7.92L97.14,68.12c3.86-1.3,7.34-1.77,9.42.75C108.88,72.42,108.5,76.55,106.26,81.1ZM63.1,70.31c-.47,1.87-.8,3.82-.58,4.46.31.86,1.07,1.13,2,1.13,1-.41.82-3.3.8-4.83C64.07,69.62,63.46,69.92,63.1,70.31Z"/><text class="cls-4" transform="translate(47 130.9)">北京</text></g></g></svg>