<svg id="图层_1" data-name="图层 1" xmlns="http://www.w3.org/2000/svg" xmlns:xlink="http://www.w3.org/1999/xlink" viewBox="0 0 32 32"><defs><style>.cls-1{fill:#3ad6a5;}.cls-2{fill:url(#未命名的渐变_148);}.cls-3{fill:url(#未命名的渐变_102);}.cls-4{fill:url(#未命名的渐变_116);}.cls-5{fill:url(#未命名的渐变_123);}.cls-6{fill:url(#未命名的渐变_123-2);}.cls-7{fill:#fff;stroke-width:0.1px;}.cls-7,.cls-8{stroke:#fff;stroke-miterlimit:10;}.cls-8{font-size:4px;fill:#f8fcff;stroke-width:0.1px;font-family:MicrosoftYaHei, Microsoft YaHei;}</style><linearGradient id="未命名的渐变_148" x1="16.06" y1="1.76" x2="16.06" y2="30.47" gradientUnits="userSpaceOnUse"><stop offset="0" stop-color="#68f5e7" stop-opacity="0.9"/><stop offset="1" stop-color="#01917f"/></linearGradient><linearGradient id="未命名的渐变_102" x1="405.84" y1="575.96" x2="405.84" y2="567.24" gradientUnits="userSpaceOnUse"><stop offset="0.34" stop-color="#fff" stop-opacity="0"/><stop offset="1" stop-color="#fff"/></linearGradient><linearGradient id="未命名的渐变_116" x1="400.23" y1="571.52" x2="412.92" y2="571.52" gradientUnits="userSpaceOnUse"><stop offset="0" stop-color="#fff" stop-opacity="0"/><stop offset="0.21" stop-color="#fff"/><stop offset="0.77" stop-color="#fff" stop-opacity="0.9"/><stop offset="1" stop-color="#fff" stop-opacity="0"/></linearGradient><linearGradient id="未命名的渐变_123" x1="396.92" y1="572.27" x2="398.69" y2="575.32" gradientUnits="userSpaceOnUse"><stop offset="0.21" stop-color="#fff" stop-opacity="0"/><stop offset="1" stop-color="#fff" stop-opacity="0.9"/></linearGradient><linearGradient id="未命名的渐变_123-2" x1="413.11" y1="572.27" x2="414.87" y2="575.32" xlink:href="#未命名的渐变_123"/></defs><title>未标题-1</title><circle class="cls-1" cx="16" cy="16" r="16"/><circle class="cls-2" cx="16.06" cy="16.12" r="14.35"/><path class="cls-3" d="M395.27,576c-1.18-2-2.88-5,3.77-5.59,1.88-.3,2.1-.57,4.81-1.85,1-.39,3.21-1,6.94.39s9,2.07,5.8,6.3a3,3,0,0,0,1.21-1.75c.09-.24.78-2.28-3.38-3.7-4-1.37-7.34-3.63-11-1.89A16,16,0,0,1,397.5,570c-3.24.64-4.7,2.86-3,5.07A4.18,4.18,0,0,0,395.27,576Z" transform="translate(-389.93 -553.3)"/><path class="cls-4" d="M400.23,572.22s1.79-2.08,6.52-1.18,6.17-.23,6.17-.23-2.2,2-6.34,1.14S400.23,572.22,400.23,572.22Z" transform="translate(-389.93 -553.3)"/><path class="cls-5" d="M397.81,572a1.76,1.76,0,1,0,1.76,1.76A1.76,1.76,0,0,0,397.81,572Zm0,2.9a1.39,1.39,0,1,1,1.35-1.39A1.37,1.37,0,0,1,397.8,574.93Z" transform="translate(-389.93 -553.3)"/><path class="cls-6" d="M414,572a1.76,1.76,0,1,0,1.76,1.76A1.76,1.76,0,0,0,414,572Zm0,2.9a1.39,1.39,0,1,1,1.35-1.39A1.37,1.37,0,0,1,414,574.93Z" transform="translate(-389.93 -553.3)"/><path class="cls-7" d="M404.14,573.25q0,.13,0,.28H405l.48,0q-.07.15-.12.3t-.12.36l-.16,0-.17,0q.09-.2.16-.39h-.66l-.09.24h.15a2.55,2.55,0,0,0,.39,0l-.07.15a.89.89,0,0,0,0,.13,2.14,2.14,0,0,0-.37,0h-.15l-.09.24h.22l.39,0a1,1,0,0,0-.07.15.64.64,0,0,0,0,.13,2.22,2.22,0,0,0-.37,0h-.22l-.08.23h.54a3,3,0,0,0,.42,0,1,1,0,0,0-.07.15.8.8,0,0,0,0,.15l-.4,0H404a.74.74,0,0,0,.29.21,2.82,2.82,0,0,0,.63.15,1.68,1.68,0,0,0-.39.3,2.06,2.06,0,0,1-.45-.23l0,.1q-.1.27-.18.53l-.14,0-.17,0,.21-.56H402.5q-.11.3-.2.59l-.16,0-.15,0q.11-.27.21-.53l0-.11q-.29.14-.61.26a1.07,1.07,0,0,0-.17-.27,4.58,4.58,0,0,0,1.18-.43h-.44l-.42,0a1,1,0,0,0,.07-.15.85.85,0,0,0,0-.15,2.58,2.58,0,0,0,.4,0h.57l.08-.23h-.26l-.39,0a.8.8,0,0,0,.06-.13.85.85,0,0,0,0-.15,2.21,2.21,0,0,0,.37,0H403l.09-.24h-.16a2.55,2.55,0,0,0-.39,0,.8.8,0,0,0,.06-.13.85.85,0,0,0,0-.15,2.14,2.14,0,0,0,.37,0h.16l.09-.24h-.66q-.07.2-.13.41l-.16,0-.17,0q.08-.18.15-.36t.1-.32l.46,0h1a1.36,1.36,0,0,0,0-.24Zm-1.21,2.55a1.11,1.11,0,0,0,.33.06,1.59,1.59,0,0,0-.2.21,1.16,1.16,0,0,1-.3.33,1.6,1.6,0,0,1-.48.24,6.52,6.52,0,0,1-.78.17.53.53,0,0,0-.12-.3,5.39,5.39,0,0,0,.67-.07,1.39,1.39,0,0,0,.5-.17A1,1,0,0,0,402.93,575.8Zm-.33-.37h1.3a.79.79,0,0,1-.15-.25H403Zm1.46-1.41.09-.24h-.59l-.09.24Zm-.17.47.09-.24h-.59l-.09.24Zm-.75.45h.59l.08-.23h-.59Zm.14,1.16a5.25,5.25,0,0,0,1,.4,2.06,2.06,0,0,0-.3.29,3.74,3.74,0,0,0-1-.44A2.15,2.15,0,0,0,403.27,576.1Z" transform="translate(-389.93 -553.3)"/><path class="cls-7" d="M407.1,573.74l.49,0h.47l.47-.62a.79.79,0,0,0,.3.21,5.38,5.38,0,0,0-.4.4h1.13l.51,0a1.38,1.38,0,0,0-.08.18,1.2,1.2,0,0,0-.05.18l-.49,0h-1.28q-.26.31-.72.78h.66v0q.1-.28.17-.56l.41,0a1.22,1.22,0,0,0-.19.35l-.08.21H409l.46,0a1,1,0,0,0-.08.17,1.2,1.2,0,0,0,0,.17l-.45,0h-.59l-.2.54H409l.51,0a1.36,1.36,0,0,0-.08.18,1.19,1.19,0,0,0-.05.18l-.49,0H408l-.07.19q-.11.32-.2.63l-.19,0-.2,0q.14-.32.26-.63l.07-.19h-1l-.51,0a1.4,1.4,0,0,0,.08-.18,1.17,1.17,0,0,0,0-.18l.49,0h1l.2-.54h-.5a5.05,5.05,0,0,0-.63,0l0-.37a2.77,2.77,0,0,0,.7-.53l.2-.22h-.33l-.51,0a1.4,1.4,0,0,0,.08-.18A1.17,1.17,0,0,0,407.1,573.74Z" transform="translate(-389.93 -553.3)"/><text class="cls-8" transform="translate(12.02 10.08)">三 分</text></svg>