<svg id="图层_1" data-name="图层 1" xmlns="http://www.w3.org/2000/svg" xmlns:xlink="http://www.w3.org/1999/xlink" viewBox="0 0 32 32"><defs><style>.cls-1{fill:#f49711;}.cls-2{fill:url(#未命名的渐变_180);}.cls-3{fill:#fff;}</style><linearGradient id="未命名的渐变_180" x1="16.06" y1="1.76" x2="16.06" y2="30.47" gradientUnits="userSpaceOnUse"><stop offset="0" stop-color="#f3847d" stop-opacity="0.9"/><stop offset="1" stop-color="#ae231e"/></linearGradient></defs><title>未标题-1</title><circle class="cls-1" cx="16" cy="16" r="16"/><circle class="cls-2" cx="16.06" cy="16.12" r="14.35"/><path class="cls-3" d="M382.67,380a2.8,2.8,0,1,0,2.8-2.8A2.8,2.8,0,0,0,382.67,380Z" transform="translate(-362.81 -357.75)"/><path class="cls-3" d="M379.95,367.77a1.8,1.8,0,1,0,1.8-1.8A1.8,1.8,0,0,0,379.95,367.77Z" transform="translate(-362.81 -357.75)"/><path class="cls-3" d="M384.19,374.3a5,5,0,0,0-9.55-2.08l-7.62.51-1.09,4.07h8.93a5,5,0,0,0,9.34-2.5Zm-11.3-.66-.36,1.7h-.36l.36-1.7Zm-5.06,2a.53.53,0,0,1-.11.24.3.3,0,0,1-.2.1l-.34,0q0-.16,0-.36h.22s.08,0,.09-.11l.1-.5-.23.1v-.4l.31-.11.1-.48h-.28l.07-.34h.28l.1-.49h.35l-.1.49h.21l-.07.34h-.21l-.07.35.2-.07q0,.18,0,.37l-.24.09Zm.54.38.13-.61H368l.07-.36h.48l.06-.3h-.35l.07-.36h.35l.06-.29h-.35l.07-.36h.35l.1-.48h.37l-.58,2.74h-.37Zm1.85-1.9h-.48l-.06.29h.43l-.07.36h-.43l-.06.3h.53l-.07.36h-.53l-.13.61H369l.58-2.74h.36l-.1.48h.48Zm.55,1.92a2.41,2.41,0,0,0-.22-.32,3,3,0,0,0,.8-.59l-.26-.3.25-.23.24.24a2.68,2.68,0,0,0,.24-.42h-.48a4.45,4.45,0,0,1-.57.66,2.16,2.16,0,0,0-.11-.36,3.8,3.8,0,0,0,.7-1H371l.08-.37h1.46l-.08.37h-.68l-.15.28h.7l-.07.34A3.33,3.33,0,0,1,370.78,376Zm2.33-.51a.66.66,0,0,1-.15.32.4.4,0,0,1-.26.13h-.57q0-.26,0-.41h.5a.16.16,0,0,0,.08-.06.28.28,0,0,0,0-.12l.45-2.12h.38Zm8.31-2.81a1.9,1.9,0,0,1-1.24,1.23,1.17,1.17,0,0,1,.79.48,1.11,1.11,0,0,1,.12.91,2.24,2.24,0,0,1-.94,1.32,2.86,2.86,0,0,1-1.7.54,1.91,1.91,0,0,1-1.37-.46,1.36,1.36,0,0,1-.4-1.2l1.25-.13a.79.79,0,0,0,.16.64.73.73,0,0,0,.57.22,1.12,1.12,0,0,0,.72-.26,1.25,1.25,0,0,0,.43-.71.76.76,0,0,0-.1-.67.68.68,0,0,0-.56-.25,2.69,2.69,0,0,0-.6.08l.35-.92a1.42,1.42,0,0,0,.83-.2.9.9,0,0,0,.4-.56.5.5,0,0,0-.09-.47.61.61,0,0,0-.48-.18,1,1,0,0,0-.6.2,1.21,1.21,0,0,0-.42.58l-1.12-.18a2.91,2.91,0,0,1,.57-.85,2.24,2.24,0,0,1,.8-.5,2.86,2.86,0,0,1,1-.18,1.67,1.67,0,0,1,1.36.53A1.07,1.07,0,0,1,381.42,372.72Z" transform="translate(-362.81 -357.75)"/><path class="cls-3" d="M371,378.78l.48.73,3.63-2.15Zm2.75.73.45.49,1.44-1.73Zm1.63,2.87,1.21-3.24-1.89,3Zm9.25-9.06,4.74.24v-.92Zm2.11-5.21-.61-.55-2.58,3.23Zm-.21,3.22-.18-.44-1.89,1.19Zm-14.38-3.77-.51.67,3.92,2.16Zm3.28-.43-.48.29,1.64,2Zm1.87-3.15-1.09.27,1.76,4.72Z" transform="translate(-362.81 -357.75)"/></svg>