<svg xmlns="http://www.w3.org/2000/svg" xmlns:xlink="http://www.w3.org/1999/xlink" viewBox="0 0 154 154"><defs><style>.cls-1{fill:#d3e7ff;}.cls-2{fill:url(#未命名的渐变_125);}.cls-3{fill:#fff;}</style><linearGradient id="未命名的渐变_125" x1="77" y1="9" x2="77" y2="145" gradientUnits="userSpaceOnUse"><stop offset="0" stop-color="#5990df"/><stop offset="0.99" stop-color="#003c88"/></linearGradient></defs><title>资源 18</title><g id="图层_2" data-name="图层 2"><g id="图层_1-2" data-name="图层 1"><circle class="cls-1" cx="77" cy="77" r="77"/><circle class="cls-2" cx="77" cy="77" r="68"/><path class="cls-3" d="M38.08,97.77a1.66,1.66,0,0,1,.78.49,3.27,3.27,0,0,0,1.81.29l2.23,0a5.32,5.32,0,0,1,.51-.81,3.4,3.4,0,0,1,1.37-1.2q.64,0,.69.54t0,1.37a37.5,37.5,0,0,0,6.32-.69c.18,0,.27.07.27.2a7.83,7.83,0,0,1-.32,1,2.09,2.09,0,0,1-.37,1,5.49,5.49,0,0,1-2.82.76q-1.08.15-3.06.25,0,.71,0,1.42a47.05,47.05,0,0,0,9-1.05q.29,0,.29.22-.12.47-.34,1.1a2.15,2.15,0,0,1-.42,1q-.73.78-4.19,1.13l-.24,0q-.49,2.11-.76,3.33,2.15-.22,4.28-.54c.18,0,.27.11.27.32l-.76,1.79a1.1,1.1,0,0,1-1,.73,53,53,0,0,1-5.31.73l-.71.07q-.12,1-.17,1.86l.29,0q4.13-.27,8.23-.93c.2,0,.29.11.29.34q-.41.92-.78,1.86a1.18,1.18,0,0,1-1.08.78,54.42,54.42,0,0,1-6.15.88l-.76.07q0,1,0,1.93,0,.59-.64.59H42.2a.56.56,0,0,1-.64-.64q0-.81.07-1.59-3.21.15-7.25.15-1.71-.24-1.71-1.22a4.47,4.47,0,0,1,2.3-2.55,1.82,1.82,0,0,0,.44,0,1.42,1.42,0,0,1,.54.49,2.87,2.87,0,0,0,1.47.24q2.28,0,4.58-.12.15-.94.37-1.86-2.82.12-6.29.12-1.64-.22-1.64-1.15a4.27,4.27,0,0,1,2.2-2.42,1.53,1.53,0,0,0,.42,0,1.31,1.31,0,0,1,.51.46,2.83,2.83,0,0,0,1.4.22h.34q-.91-1.15-1.57-2a1,1,0,0,1-.27-.56.62.62,0,0,1,.66-.44,6.44,6.44,0,0,1,4,1.54.64.64,0,0,1,.22.44,3.44,3.44,0,0,1-.56,1q1.92-.07,3.84-.22a12.27,12.27,0,0,1,2-3.35q-3.6.29-10.16.44a18.58,18.58,0,0,1-4.11-.24.69.69,0,0,1-.49-.69A4.61,4.61,0,0,1,35,101.74a1.73,1.73,0,0,1,.88.56,6.49,6.49,0,0,0,2.62.29q1.69,0,3.18-.07.1-.78.24-1.44l-1.74,0a17.08,17.08,0,0,1-3.72-.22.62.62,0,0,1-.44-.61,3.59,3.59,0,0,1,.86-1.57,3.48,3.48,0,0,1,1.18-1Z"/><path class="cls-3" d="M60.76,105.53q1.59,0,1.59,1.76a8.58,8.58,0,0,1-.73,2.35q-.62,1.54-1.26,3.07a10.37,10.37,0,0,0-.59,2q0,.92.84.92,1.68,0,3.74-.11,2.57-.06,4.41-.28a9,9,0,0,0,2.68-1.06q1.15,0,1.15,1.2,0,1.51-2.93,2.1a45.4,45.4,0,0,1-8.74.73q-4.47,0-4.47-3.44a16.12,16.12,0,0,1,.81-2.9q.81-1.82,1.31-3,0-.34-.42-.34a9.14,9.14,0,0,1-2.88.84q-.73,0-.73-.64a5.4,5.4,0,0,1,.56-1.37q.59-.87.81-.87a1.84,1.84,0,0,1,.5.17,1.61,1.61,0,0,0,.53.28L58.7,106a7.17,7.17,0,0,1,2.07-.5Z"/><path class="cls-3" d="M56.63,97.6A6.88,6.88,0,0,1,61,99.36a.72.72,0,0,1,.25.5,5,5,0,0,1-.75,1.23q-.89,1.15-1.15,1.15a1.06,1.06,0,0,1-.67-.2l-2.46-3.32a1.38,1.38,0,0,1-.31-.64.74.74,0,0,1,.75-.47Z"/><path class="cls-3" d="M76.2,102.72q.29,0,.29.34-.41.92-.78,1.86a1.18,1.18,0,0,1-1.08.78,25,25,0,0,1-3.94.86q-1.1.17-2.42.29a17,17,0,0,0-1.52,3.94.8.8,0,0,0,.88.78,16.71,16.71,0,0,0,4.14-.86q-.67-1.39-1.37-2.77a.52.52,0,0,1,.59-.59,5.87,5.87,0,0,1,2.72,1.71q2.86,2.86,2.94,3.7a.58.58,0,0,1-.22.49A8.52,8.52,0,0,1,74,114.59a.61.61,0,0,1-.59-.32q-.37-.79-.71-1.59a18.72,18.72,0,0,1-6.61,1.81q-3,0-3.21-2.35A6.51,6.51,0,0,1,64,108.81q.58-.91,1.22-1.79l-2.15,0q-1.62-.24-1.62-1.18a4.25,4.25,0,0,1,2.18-2.42,1.51,1.51,0,0,0,.42,0,1.31,1.31,0,0,1,.51.47,2.58,2.58,0,0,0,1.4.24,35,35,0,0,0,5.14-.39,36.46,36.46,0,0,0,5.07-1Z"/><path class="cls-3" d="M65.92,97.75a1.54,1.54,0,0,1,.76.49q.17.27,1,.27,4.92-.17,6.56-.91c.18,0,.27.07.27.22s-.19.61-.32,1a2.28,2.28,0,0,1-.39,1q-.24.51-1.47.73A26.55,26.55,0,0,1,68,101a15.39,15.39,0,0,1-3.55-.22.6.6,0,0,1-.42-.59,3.45,3.45,0,0,1,.81-1.52,3.56,3.56,0,0,1,1.13-.91Z"/><path class="cls-3" d="M89.6,104.07q2.62,0,2.67,2.28-.15,1.47-.86,5.34.37.12.73.27a11.67,11.67,0,0,1,1.54-1.59,12.71,12.71,0,0,1,3.18-1.89,1.26,1.26,0,0,1,.56-.15c.16,0,.24.11.24.24q0,.47-2.79,4.87a17.94,17.94,0,0,1,2.33,1.81.35.35,0,0,1,.22.29q-1.74,2.3-2,2.3a.59.59,0,0,1-.39-.12q-1.2-1.05-3-3l-1-1q-.07.45-.17.91-.76,4.95-.81,6.37,0,.56.64.66,5.19,0,5.51-.24a9.81,9.81,0,0,0,1.91-.44.42.42,0,0,1,.44.29,1.28,1.28,0,0,1,.15.66q0,1.84-2.59,2l-6.9,0a3.22,3.22,0,0,1-2.25-.76A3,3,0,0,1,86,121q0-3,2.82-13.81,0-.29-.27-.29-3.09.49-10.48,1-1.1,0-1.1-.71A4.53,4.53,0,0,1,78,105a4.18,4.18,0,0,1,.86-.81,1.15,1.15,0,0,1,.64.32.54.54,0,0,0,.46.24q3-.1,9.67-.66Z"/><path class="cls-3" d="M121,121.47q-4.53-.93-8.86-2,1-4.65,1.05-5.46,0-1.32-1.91-1.42a0,0,0,0,1,0,0s-.07,0-.07-.15a39.74,39.74,0,0,0,1.71-6.51q0-1.59-1.49-1.59l-1.13.66a1.13,1.13,0,0,1-.54-.1.67.67,0,0,0-.32-.17q-.49,0-1.2,1.1a3.17,3.17,0,0,0-.49,1.08q0,.49.76.49a8.86,8.86,0,0,0,2-.61s.07,0,.07,0q-2.13,5.63-2.62,7.32,0,.83.49.83.93-.07,2.2-.29c.08,0,.12,0,.12.1q-.58,2-1.18,4.06c-.36-.06-.63-.11-.81-.12a2.09,2.09,0,0,0-.93.24l-.07.07-.25-11.75a2.11,2.11,0,0,0-1.54-2.11,2.84,2.84,0,0,0,0-.39q.12-1.27.12-1.71a.61.61,0,0,0-.46-.44,2.42,2.42,0,0,0-.91.44,5.56,5.56,0,0,0-1.42,2.5,2.65,2.65,0,0,0-1.1,1,36.8,36.8,0,0,0-2,7.74h-.15l-.27-.1a.2.2,0,0,1-.15,0,1.08,1.08,0,0,0-.56.37,4,4,0,0,0-.42.54,3.31,3.31,0,0,0-.39,1.2q0,.61.71.61a7.82,7.82,0,0,0,.86-.07q-.42,3.16-.59,7,.07.69.61.68l2,0q.69,0,.69-.78.07-3.79.27-7.37l1.13-.2a6.66,6.66,0,0,0,1-.29q0,1.21-.07,2.42a3,3,0,0,0-1.52-1.52.51.51,0,0,0-.27.07.36.36,0,0,0-.1.27q.12,1.49.25,3.45a.46.46,0,0,0,.46.29,7.2,7.2,0,0,0,1.13-.56q-.07,1.88-.15,3.82a.59.59,0,0,0,.61.54,19.94,19.94,0,0,0,2.08-.1c.25,0,.39-.19.44-.56l-.07-3.67a2.27,2.27,0,0,0,.64.42l.56.24q-.69,2.47-.81,3.06t.34.44a14.36,14.36,0,0,0,2,.2.71.71,0,0,0,.61-.39l.51-2.25q1.55.65,3.11,1.25a41.13,41.13,0,0,0,4.92,1.74.82.82,0,0,0,.51-.17q.76-1.64,1.2-2.84A.46.46,0,0,0,121,121.47Zm-15.84-12.12a2.94,2.94,0,0,0-1.13-.78.54.54,0,0,0-.25,0,.33.33,0,0,0-.1.24q.27,1.52.56,3.48a.4.4,0,0,0,.42.29l.42-.2q0,.49,0,1l-2,.37q.24-3,.59-5.88a3.4,3.4,0,0,1,1.1-.76q.44,0,.47.37Q105.17,108.45,105.14,109.35Z"/><path class="cls-3" d="M114.47,110.68a1.27,1.27,0,0,1,.61.39q.12.2.56.22.15-1.91.34-3.82-.55.12-1.1.2-1.25,0-1.25-.56a3.36,3.36,0,0,1,.42-1.32q.64-.88,1-1a2.84,2.84,0,0,1,.54.39,2.39,2.39,0,0,0,.81.12,3.77,3.77,0,0,0,1.49-.42,5.77,5.77,0,0,0,1.49-.81q.34,0,.34.27a2.13,2.13,0,0,1-.46,1.54,4.28,4.28,0,0,1-1.1.78q0,2.19,0,4.38a5.87,5.87,0,0,0,2.08-.61c.16,0,.24.06.24.17s-.16.54-.27.88a1.82,1.82,0,0,1-.34.86q-.17.39-1,.56a3.67,3.67,0,0,1-.76.15q0,1.79,0,3.57a10.32,10.32,0,0,0,2.28-.39q.24,0,.24.2-.1.37-.29.91a1.81,1.81,0,0,1-.34.86q-.15.29-.93.44a17.48,17.48,0,0,1-2.79.24,15,15,0,0,1-3.08-.17.52.52,0,0,1-.37-.51,3.12,3.12,0,0,1,.71-1.32,3.34,3.34,0,0,1,1-.78,1.36,1.36,0,0,1,.64.42s0,.07,0,.07q.1-1.68.25-3.35a9.44,9.44,0,0,1-2.2-.17.46.46,0,0,1-.34-.46,2.87,2.87,0,0,1,.66-1.2,2.54,2.54,0,0,1,.88-.73Z"/><path class="cls-3" d="M114.47,107.68"/><path class="cls-3" d="M66.75,72.61a1.47,1.47,0,1,0,1.69,1.44,1.58,1.58,0,0,0-1.69-1.44Zm7.15,0a1.46,1.46,0,1,0,1.68,1.44,1.58,1.58,0,0,0-1.68-1.44ZM59.81,75a1.56,1.56,0,0,0,1.68-1.44A1.7,1.7,0,1,0,59.81,75Zm0,0"/><path class="cls-3" d="M122.1,44.56a69,69,0,0,0-14.47-6.68l14.47-7.49Z"/><path class="cls-3" d="M68.5,34.23c31.59,0,48.29,9.57,54.44,14.15-7-1.91-14-3.46-21.2-4.72A194.17,194.17,0,0,0,73,40.72,153.49,153.49,0,0,0,44,42.81c-4.76.81-9.47,1.81-14.1,3.05q-1.85.5-3.67,1C29.85,42,40,34.23,68.5,34.23Z"/><path class="cls-3" d="M50.51,70.18A109.54,109.54,0,0,0,65,71.41c1.13,0,2.29,0,3.49,0A134.39,134.39,0,0,0,88.38,70v3.17l5.4,3.31H55Z"/><path class="cls-3" d="M68.5,69.89C40,69.89,29.85,62.1,26.28,57.22c1.21.36,2.45.7,3.67,1q6.95,1.86,14.1,3.05A154.52,154.52,0,0,0,73,63.4a194.15,194.15,0,0,0,28.76-2.94c7.17-1.25,14.23-2.8,21.21-4.71-6.17,4.55-22.87,14.14-54.46,14.14Z"/><path class="cls-3" d="M31.08,55.09c-2.25-.62-4.5-1.26-6.71-2V51c2.21-.72,4.46-1.38,6.71-2,4.5-1.2,9.08-2.18,13.7-3a150.38,150.38,0,0,1,28.1-2A191,191,0,0,1,101,46.92a225.94,225.94,0,0,1,22.65,5.16A225.94,225.94,0,0,1,101,57.23a191.17,191.17,0,0,1-28.11,2.86,149.39,149.39,0,0,1-28.1-2q-6.95-1.16-13.7-3Z"/><path class="cls-3" d="M31.08,55.09"/><path class="cls-3" d="M74,89.83A258.55,258.55,0,0,1,123.76,95C113.58,91.1,95.11,87.48,74,87.48S34.42,91.1,24.24,95A251.47,251.47,0,0,1,74,89.83Z"/></g></g></svg>